<?xml version="1.0" encoding="utf-8"?>
<!-- Generator: Adobe Illustrator 22.1.0, SVG Export Plug-In . SVG Version: 6.00 Build 0)  -->
<svg version="1.1" xmlns="http://www.w3.org/2000/svg" xmlns:xlink="http://www.w3.org/1999/xlink" x="0px" y="0px"
	 viewBox="0 0 35 35.1" style="enable-background:new 0 0 35 35.1;" xml:space="preserve">
<style type="text/css">
	.st0{display:none;}
	.st1{display:inline;fill:#FFFFFF;}
	.st2{fill:none;stroke:#FFFFFF;stroke-width:1.5;stroke-linecap:round;stroke-miterlimit:10;}
</style>
<g id="Layer_1" class="st0">
	<polyline class="st1" points="0,35.1 0,0 35,0 35,35.1 	"/>
</g>
<g id="Layer_2">
	<path class="st2" d="M23.2,14.2c-0.3-1.1-0.8-2.2-1.7-3c-0.9-0.9-1.9-1.4-3-1.7"/>
	<path class="st2" d="M27.4,13.7L27.4,13.7c-0.4-2-1.3-4-2.9-5.5C23,6.6,21,5.7,19,5.3l0,0"/>
	<path class="st2" d="M31.6,13.5L31.6,13.5c-0.4-3-1.8-5.9-4.1-8.2c-2.3-2.3-5.2-3.7-8.2-4.1l0,0"/>
	<path class="st2" d="M15.8,14.5c1-0.9,2.3-1.1,3.1-0.4s0.6,2.1-0.4,3.1L15.8,14.5z"/>
	<polygon class="st2" points="7.6,26 4.5,34 14.1,34 11.9,28.4 	"/>
	<path class="st2" d="M26.3,25.4c-5.3,5.2-13.8,5.2-19-0.1s-5.2-13.8,0.1-19L26.3,25.4z"/>
</g>
</svg>
