<?xml version="1.0" encoding="utf-8"?>
<!-- Generator: Adobe Illustrator 22.0.1, SVG Export Plug-In . SVG Version: 6.00 Build 0)  -->
<svg version="1.1" id="Ebene_1" xmlns="http://www.w3.org/2000/svg" xmlns:xlink="http://www.w3.org/1999/xlink" x="0px" y="0px"
	 viewBox="0 0 25 18" style="enable-background:new 0 0 25 18;" xml:space="preserve">
<style type="text/css">
	.st0{fill:none;stroke:#A9A9A9;stroke-width:0.745;stroke-linecap:round;stroke-miterlimit:10;}
</style>
<path class="st0" d="M11.8,7.4c-0.1-0.6-0.4-1.1-0.8-1.5C10.6,5.4,10.1,5.1,9.5,5"/>
<path class="st0" d="M13.8,7.2L13.8,7.2c-0.2-1-0.6-2-1.4-2.8c-0.8-0.8-1.7-1.3-2.7-1.5l0,0"/>
<path class="st0" d="M15.9,7L15.9,7c-0.2-1.5-0.9-3-2-4.2c-1.1-1.2-2.5-1.9-4-2.1l0,0"/>
<path class="st0" d="M8.2,7.5C8.6,7.1,9.3,7,9.7,7.4C10,7.7,9.9,8.4,9.5,8.9L8.2,7.5z"/>
<polygon class="st0" points="4.2,13.4 2.7,17.4 7.4,17.4 6.3,14.6 "/>
<path class="st0" d="M13.3,13.1c-2.6,2.7-6.7,2.6-9.3,0s-2.5-7,0-9.7L13.3,13.1z"/>
</svg>
