<?xml version="1.0" encoding="utf-8"?>
<!-- Generator: Adobe Illustrator 22.1.0, SVG Export Plug-In . SVG Version: 6.00 Build 0)  -->
<svg version="1.1" xmlns="http://www.w3.org/2000/svg" xmlns:xlink="http://www.w3.org/1999/xlink" x="0px" y="0px"
	 viewBox="0 0 35 35.1" style="enable-background:new 0 0 35 35.1;" xml:space="preserve">
<style type="text/css">
	.st0{fill:none;stroke:#FFFFFF;stroke-width:1.5;stroke-linecap:round;stroke-linejoin:round;stroke-miterlimit:10;}
	.st1{fill:none;stroke:#FFFFFF;stroke-width:1.5;stroke-linecap:round;stroke-miterlimit:10;}
</style>
<g id="Layer_1">
</g>
<g id="Layer_2">
	<rect x="5.7" y="19.7" class="st0" width="23.7" height="5.2"/>
	<polyline class="st0" points="20.7,19.4 20.7,13.5 27,13.5 27,19.4 	"/>
	<line class="st0" x1="8.3" y1="24.8" x2="8.3" y2="30.1"/>
	<line class="st0" x1="12.5" y1="1.3" x2="12.5" y2="3.6"/>
	<line class="st0" x1="27" y1="24.8" x2="27" y2="30.1"/>
	<polyline class="st0" points="26.7,13.5 32.1,9.4 32.1,14.6 	"/>
	<polyline class="st0" points="8.1,19.7 11.2,4 13.6,4 16.7,19.7 	"/>
	<line class="st0" x1="14" y1="7.9" x2="9.7" y2="11.8"/>
	<line class="st0" x1="9.7" y1="12.5" x2="16.2" y2="18.3"/>
	<path class="st1" d="M1.4,33.7c0.5-0.1,0.7-0.3,1.3-0.8c0.9-0.9,1.4-1.2,2.4-1.2s1.6,0.3,2.4,1.2c0.7,0.7,1,0.9,1.7,0.9
		s1-0.2,1.7-0.9c0.9-0.9,1.4-1.2,2.4-1.2s1.6,0.3,2.4,1.2c0.7,0.7,1,0.9,1.7,0.9s1-0.2,1.7-0.9c0.9-0.9,1.4-1.2,2.4-1.2
		c1,0,1.6,0.3,2.4,1.2c0.7,0.7,1,0.9,1.7,0.9s1-0.2,1.7-0.9c0.9-0.9,1.4-1.2,2.4-1.2s1.6,0.3,2.4,1.2c0.6,0.6,0.8,0.8,1.3,0.8"/>
</g>
</svg>
