<?xml version="1.0" encoding="utf-8"?>
<!-- Generator: Adobe Illustrator 22.0.1, SVG Export Plug-In . SVG Version: 6.00 Build 0)  -->
<svg version="1.1" id="Ebene_1" xmlns="http://www.w3.org/2000/svg" xmlns:xlink="http://www.w3.org/1999/xlink" x="0px" y="0px"
	 viewBox="0 0 25 18" style="enable-background:new 0 0 25 18;" xml:space="preserve">
<style type="text/css">
	.st0{fill:none;stroke:#A9A9A9;stroke-width:0.7945;stroke-linecap:round;stroke-linejoin:round;stroke-miterlimit:10;}
	.st1{fill:none;stroke:#A9A9A9;stroke-width:0.7945;stroke-linecap:round;stroke-miterlimit:10;}
</style>
<rect x="3.3" y="10.1" class="st0" width="12.6" height="2.7"/>
<polyline class="st0" points="11.3,10 11.3,6.8 14.6,6.8 14.6,10 "/>
<line class="st0" x1="4.7" y1="12.9" x2="4.7" y2="15.6"/>
<line class="st0" x1="6.9" y1="0.4" x2="6.9" y2="1.6"/>
<line class="st0" x1="14.6" y1="12.9" x2="14.6" y2="15.6"/>
<polyline class="st0" points="14.5,6.9 17.3,4.7 17.3,7.4 "/>
<polyline class="st0" points="4.6,10.1 6.2,1.8 7.5,1.8 9.1,10.1 "/>
<line class="st0" x1="7.7" y1="3.9" x2="5.4" y2="6"/>
<line class="st0" x1="5.4" y1="6.3" x2="8.9" y2="9.4"/>
<path class="st1" d="M1,17.5c0.2-0.1,0.4-0.1,0.7-0.4c0.5-0.5,0.7-0.6,1.3-0.6s0.8,0.2,1.3,0.6c0.4,0.4,0.5,0.5,0.9,0.5
	s0.5-0.1,0.9-0.5c0.5-0.5,0.7-0.6,1.3-0.6s0.8,0.2,1.3,0.6c0.4,0.4,0.5,0.5,0.9,0.5c0.4,0,0.5-0.1,0.9-0.5c0.5-0.5,0.7-0.6,1.3-0.6
	s0.8,0.2,1.3,0.6c0.4,0.4,0.5,0.5,0.9,0.5s0.5-0.1,0.9-0.5c0.5-0.5,0.7-0.6,1.3-0.6s0.8,0.2,1.3,0.6c0.3,0.3,0.4,0.4,0.7,0.4"/>
</svg>
