<?xml version="1.0" encoding="utf-8"?>
<!-- Generator: Adobe Illustrator 22.1.0, SVG Export Plug-In . SVG Version: 6.00 Build 0)  -->
<svg version="1.1" xmlns="http://www.w3.org/2000/svg" xmlns:xlink="http://www.w3.org/1999/xlink" x="0px" y="0px"
	 viewBox="0 0 35 35.1" style="enable-background:new 0 0 35 35.1;" xml:space="preserve">
<style type="text/css">
	.st0{display:none;}
	.st1{display:inline;fill:#FFFFFF;}
	.st2{fill:none;stroke:#FFFFFF;stroke-width:1.5;stroke-miterlimit:10;}
	.st3{fill:none;stroke:#FFFFFF;stroke-width:1.5;stroke-linecap:round;stroke-linejoin:round;stroke-miterlimit:10;}
	.st4{fill:none;stroke:#FFFFFF;stroke-linecap:round;stroke-linejoin:round;stroke-miterlimit:10;}
</style>
<g id="Layer_1" class="st0">
	<rect class="st1" width="35" height="35.1"/>
</g>
<g id="Layer_2">
	<line class="st2" x1="5.9" y1="26.4" x2="5.9" y2="11.8"/>
	<line class="st2" x1="9.9" y1="11.8" x2="9.9" y2="26.4"/>
	<line class="st2" x1="15.4" y1="26.4" x2="15.4" y2="11.8"/>
	<line class="st2" x1="19.4" y1="11.8" x2="19.4" y2="26.4"/>
	<path class="st2" d="M4.3,29.6c-0.2,0-0.4-0.2-0.4-0.4v-2.5c0-0.2,0.2-0.4,0.4-0.4h26.5c0.2,0,0.4,0.2,0.4,0.4v2.5
		c0,0.2-0.2,0.4-0.4,0.4"/>
	<path class="st2" d="M34,30v2.9c0,0.2-0.2,0.4-0.4,0.4H1.4c-0.2,0-0.4-0.2-0.4-0.4V30c0-0.2,0.2-0.4,0.4-0.4h32.2
		C33.8,29.6,34,29.8,34,30z"/>
	<line class="st2" x1="24.8" y1="26.4" x2="24.8" y2="11.8"/>
	<line class="st2" x1="28.8" y1="11.8" x2="28.8" y2="26.4"/>
	<polygon class="st3" points="17.4,1.3 2.1,12 32.9,12 	"/>
	<circle class="st4" cx="17.5" cy="7.3" r="2"/>
</g>
</svg>
