<?xml version="1.0" encoding="utf-8"?>
<!-- Generator: Adobe Illustrator 22.0.1, SVG Export Plug-In . SVG Version: 6.00 Build 0)  -->
<svg version="1.1" id="Ebene_1" xmlns="http://www.w3.org/2000/svg" xmlns:xlink="http://www.w3.org/1999/xlink" x="0px" y="0px"
	 viewBox="0 0 25 18" style="enable-background:new 0 0 25 18;" xml:space="preserve">
<style type="text/css">
	.st0{fill:none;stroke:#FFFFFF;stroke-width:0.7822;stroke-miterlimit:10;}
	.st1{fill:none;stroke:#FFFFFF;stroke-width:0.7822;stroke-linecap:round;stroke-linejoin:round;stroke-miterlimit:10;}
</style>
<line class="st0" x1="3.2" y1="13.9" x2="3.2" y2="6.2"/>
<line class="st0" x1="5.3" y1="6.2" x2="5.3" y2="13.9"/>
<line class="st0" x1="8.2" y1="13.9" x2="8.2" y2="6.2"/>
<line class="st0" x1="10.3" y1="6.2" x2="10.3" y2="13.9"/>
<path class="st0" d="M2.4,15.6c-0.1,0-0.2-0.1-0.2-0.2v-1.3c0-0.1,0.1-0.2,0.2-0.2h13.8c0.1,0,0.2,0.1,0.2,0.2v1.3
	c0,0.1-0.1,0.2-0.2,0.2"/>
<path class="st0" d="M17.9,15.9v1.2c0,0.2-0.2,0.4-0.4,0.4H1.1c-0.2,0-0.4-0.2-0.4-0.4v-1.2c0-0.2,0.2-0.4,0.4-0.4h16.5
	C17.7,15.6,17.9,15.7,17.9,15.9z"/>
<line class="st0" x1="13.1" y1="13.9" x2="13.1" y2="6.2"/>
<line class="st0" x1="15.2" y1="6.2" x2="15.2" y2="13.9"/>
<polygon class="st1" points="9.3,0.8 1.3,6.4 17.3,6.4 "/>
<circle class="st1" cx="9.3" cy="3.9" r="1"/>
</svg>
