<?xml version="1.0" encoding="utf-8"?>
<!-- Generator: Adobe Illustrator 22.0.1, SVG Export Plug-In . SVG Version: 6.00 Build 0)  -->
<svg version="1.1" id="Ebene_1" xmlns="http://www.w3.org/2000/svg" xmlns:xlink="http://www.w3.org/1999/xlink" x="0px" y="0px"
	 viewBox="0 0 25 18" style="enable-background:new 0 0 25 18;" xml:space="preserve">
<style type="text/css">
	.st0{fill:#A9A9A9;}
	.st1{fill:none;stroke:#A9A9A9;stroke-width:0.8896;stroke-linecap:round;stroke-linejoin:round;stroke-miterlimit:10;}
</style>
<g>
	<path class="st0" d="M11.6,17.7l-8.4-6.6C1.9,10,1,8.3,1,6.4C1,3,3.8,0.3,7.2,0.3c1.6,0,3.3,0.7,4.5,1.7c1.1-1.1,2.8-1.7,4.5-1.7
		c3.4,0,6.1,2.8,6.1,6.1c0,1.9-0.9,3.7-2.4,4.9l-0.1,0.1L11.6,17.7z M7.2,1.2C4.3,1.2,2,3.5,2,6.4c0,1.6,0.7,3.1,1.9,4l0,0l7.7,6.1
		l7.6-6c1.3-1,2.1-2.6,2.1-4.2c0-2.9-2.3-5.2-5.2-5.2c-1.5,0-3,0.6-4,1.7l-0.5,0.5l-0.5-0.5C10.2,1.8,8.7,1.2,7.2,1.2z"/>
</g>
<polyline class="st1" points="6.5,9 8.6,9 10.3,5.1 12.5,13.5 14.1,9 16,9 "/>
</svg>
