<?xml version="1.0" encoding="utf-8"?>
<!-- Generator: Adobe Illustrator 22.1.0, SVG Export Plug-In . SVG Version: 6.00 Build 0)  -->
<svg version="1.1" xmlns="http://www.w3.org/2000/svg" xmlns:xlink="http://www.w3.org/1999/xlink" x="0px" y="0px"
	 viewBox="0 0 35 35.1" style="enable-background:new 0 0 35 35.1;" xml:space="preserve">
<style type="text/css">
	.st0{display:none;}
	.st1{display:inline;fill:#FFFFFF;}
	.st2{fill:#FFFFFF;}
	.st3{fill:none;stroke:#FFFFFF;stroke-miterlimit:10;}
</style>
<g id="Layer_1" class="st0">
	<rect class="st1" width="35" height="35.1"/>
</g>
<g id="Layer_2">
	<g>
		<path class="st2" d="M17.7,32.4L4.3,21.8c-2.3-1.8-3.6-4.6-3.6-7.6c0-5.4,4.4-9.8,9.9-9.8c2.6,0,5.3,1.1,7.2,2.8
			c1.8-1.7,4.5-2.8,7.1-2.8c5.4,0,9.9,4.4,9.9,9.9c0,3.1-1.4,5.9-3.8,7.8l-0.1,0.1L17.7,32.4z M10.6,5.9c-4.6,0-8.4,3.7-8.4,8.3
			c0,2.5,1.1,4.9,3.1,6.5l0.1,0.1l12.3,9.8l12.2-9.6c2.2-1.7,3.4-4.1,3.4-6.7c0-4.6-3.8-8.4-8.4-8.4c-2.4,0-4.9,1-6.4,2.7l-0.7,0.8
			L17,8.5C15.5,6.9,13,5.9,10.6,5.9z"/>
	</g>
	<polyline class="st3" points="9.5,18.3 13,18.3 15.6,12.1 19.2,25.6 21.8,18.4 24.8,18.4 	"/>
</g>
</svg>
