
<svg width="9px" height="9px" viewBox="0 0 9 9" version="1.1" xmlns="http://www.w3.org/2000/svg" xmlns:xlink="http://www.w3.org/1999/xlink">

    <g id="Symbols" stroke="none" stroke-width="1" fill="none" fill-rule="evenodd">
        <g id="arrow-up"  fill="#17D941" transform="translate(-4.000000, -4.000000)"  fill-rule="nonzero">
            <g transform="translate(8.309372, 8.326631) rotate(45.000000) translate(-8.309372, -8.326631) translate(2.809372, 2.326631)" id="Shape">
                <g>
                    <path d="M0.736944572,6.78139996 L0.177622538,6.2363715 C-0.0592075126,6.00559368 -0.0592075126,5.63242105 0.177622538,5.40409831 L5.07295007,0.631416695 C5.30978012,0.40063888 5.69273935,0.40063888 5.92704993,0.631416695 L10.8223775,5.40164323 C11.0592075,5.63242105 11.0592075,6.00559368 10.8223775,6.23391642 L10.2630554,6.77894487 C10.0237059,7.01217777 9.63318827,7.0072676 9.39887769,6.76912454 L6.50904718,3.81320444 L6.50904718,10.8691134 C6.50904718,11.1956394 6.23946404,11.4583333 5.90437471,11.4583333 L5.09814475,11.4583333 C4.76305543,11.4583333 4.49347229,11.1956394 4.49347229,10.8691134 L4.49347229,3.81320444 L1.60112231,6.77157962 C1.36681173,7.01217777 0.976294091,7.01708794 0.736944572,6.78139996 Z"></path>
                </g>
            </g>
        </g>
    </g>
</svg>
