<?xml version="1.0" encoding="utf-8"?>
<!-- Generator: Adobe Illustrator 22.1.0, SVG Export Plug-In . SVG Version: 6.00 Build 0)  -->
<svg version="1.1" xmlns="http://www.w3.org/2000/svg" xmlns:xlink="http://www.w3.org/1999/xlink" x="0px" y="0px"
	 viewBox="0 0 35 35.1" style="enable-background:new 0 0 35 35.1;" xml:space="preserve">
<style type="text/css">
	.st0{display:none;}
	.st1{display:inline;fill:#FFFFFF;}
	.st2{fill:#FFFFFF;}
</style>
<g id="Layer_1" class="st0">
	<rect class="st1" width="35" height="35.1"/>
</g>
<g id="Layer_2">
	<g>
		<g>
			<path class="st2" d="M21.6,2c0.4,0,0.8,0.3,0.8,0.8V4c0,0.4-0.3,0.8-0.8,0.8h-0.3V11c0,1.7,0.6,4.4,1.3,5.9l6.2,13.7
				c0.7,1.6-0.1,2.8-1.8,2.8H8c-1.7,0-2.5-1.3-1.8-2.8l6.5-13.8c0.7-1.5,1.3-4.2,1.3-5.9V4.8h-0.3C13.3,4.8,13,4.4,13,4V2.8
				C13,2.4,13.3,2,13.8,2H21.6 M21.6,0.5h-7.8c-1.3,0-2.3,1-2.3,2.3V4c0,0.8,0.4,1.5,1.1,1.9v5c0,1.5-0.5,3.9-1.2,5.2L4.9,30
				c-0.6,1.2-0.6,2.4,0.1,3.4c0.6,1,1.7,1.5,3.1,1.5h19c1.3,0,2.4-0.6,3.1-1.5c0.6-1,0.7-2.2,0.1-3.4l-6.2-13.7
				c-0.6-1.4-1.1-3.8-1.1-5.3V6c0.6-0.4,1.1-1.1,1.1-1.9V2.8C23.9,1.5,22.9,0.5,21.6,0.5L21.6,0.5z"/>
		</g>
	</g>
</g>
</svg>
