<?xml version="1.0" encoding="utf-8"?>
<!-- Generator: Adobe Illustrator 22.0.1, SVG Export Plug-In . SVG Version: 6.00 Build 0)  -->
<svg version="1.1" id="Ebene_1" xmlns="http://www.w3.org/2000/svg" xmlns:xlink="http://www.w3.org/1999/xlink" x="0px" y="0px"
	 viewBox="0 0 25 18" style="enable-background:new 0 0 25 18;" xml:space="preserve">
<style type="text/css">
	.st0{fill:#A9A9A9;}
</style>
<g>
	<g>
		<path class="st0" d="M9.7,1c0.2,0,0.4,0.2,0.4,0.4V2c0,0.2-0.2,0.4-0.4,0.4H9.6v3.1c0,0.9,0.3,2.2,0.6,3l3.2,7
			c0.4,0.8-0.1,1.4-0.9,1.4H2.8c-0.9,0-1.3-0.6-0.9-1.4l3.3-7c0.4-0.8,0.7-2.1,0.7-3V2.4H5.7C5.5,2.4,5.3,2.3,5.3,2V1.4
			C5.3,1.2,5.5,1,5.7,1H9.7 M9.7,0.3h-4c-0.6,0-1.2,0.5-1.2,1.2V2c0,0.4,0.2,0.8,0.5,1v2.6c0,0.8-0.3,2-0.6,2.7l-3.3,7
			c-0.3,0.6-0.3,1.2,0,1.7c0.3,0.5,0.9,0.8,1.6,0.8h9.6c0.7,0,1.2-0.3,1.6-0.8c0.3-0.5,0.3-1.1,0.1-1.7l-3.2-7
			c-0.3-0.7-0.6-1.9-0.6-2.7V3c0.3-0.2,0.5-0.6,0.5-1V1.4C10.9,0.8,10.4,0.3,9.7,0.3L9.7,0.3z"/>
	</g>
</g>
</svg>
