<svg id="Ebene_1" data-name="Ebene 1" xmlns="http://www.w3.org/2000/svg" viewBox="0 0 122.82 127.32"><defs><style>.cls-1,.cls-2{fill:#fff;}.cls-1,.cls-2,.cls-3{stroke:#fff;stroke-miterlimit:10;}.cls-1{stroke-width:0.25px;}.cls-2{stroke-width:1.03px;}.cls-3{fill:none;stroke-width:6px;}</style></defs><title>pdf</title><polygon class="cls-1" points="68.59 35.67 101.99 35.15 67.95 2.28 68.59 35.67"/><rect class="cls-2" x="33" y="52.57" width="89.31" height="47.34" rx="6" ry="6"/><path d="M824.86,602.94H838.1q4.32,0,6.48,2a7.73,7.73,0,0,1,2.15,5.86,7.94,7.94,0,0,1-2.35,6.1q-2.34,2.19-7.16,2.19h-4.36v9.57h-8Zm8,11h1.95a5,5,0,0,0,3.24-.8,2.57,2.57,0,0,0,.93-2,2.85,2.85,0,0,0-.81-2.05,4.2,4.2,0,0,0-3-.85h-2.27Z" transform="translate(-782.26 -539.88)"/><path d="M851,602.94h11.83a14.18,14.18,0,0,1,5.65.94,9.22,9.22,0,0,1,3.56,2.73,11.19,11.19,0,0,1,2,4.13,19.22,19.22,0,0,1,.64,5,17.48,17.48,0,0,1-.94,6.41,10.6,10.6,0,0,1-2.61,3.81,8.51,8.51,0,0,1-3.59,2,18.49,18.49,0,0,1-4.75.71H851Zm8,5.83v14.08h1.95a8.23,8.23,0,0,0,3.55-.55,3.79,3.79,0,0,0,1.65-1.94,12.08,12.08,0,0,0,.6-4.47q0-4.1-1.34-5.61c-.89-1-2.37-1.51-4.43-1.51Z" transform="translate(-782.26 -539.88)"/><path d="M878.93,602.94h19.69v5.53H886.93V613h10v5.21h-10v10.53h-8Z" transform="translate(-782.26 -539.88)"/><path class="cls-3" d="M881.67,650v7.9a6,6,0,0,1-5.74,6.26H791a6,6,0,0,1-5.74-6.26V549.15a6,6,0,0,1,5.74-6.27h64.22L881.67,570v13.34" transform="translate(-782.26 -539.88)"/></svg>