<?xml version="1.0" encoding="utf-8"?>
<!-- Generator: Adobe Illustrator 22.1.0, SVG Export Plug-In . SVG Version: 6.00 Build 0)  -->
<svg version="1.1" xmlns="http://www.w3.org/2000/svg" xmlns:xlink="http://www.w3.org/1999/xlink" x="0px" y="0px"
	 viewBox="0 0 35 35.1" style="enable-background:new 0 0 35 35.1;" xml:space="preserve">
<style type="text/css">
	.st0{display:none;}
	.st1{display:inline;fill:#FFFFFF;}
	.st2{fill:none;stroke:#FFFFFF;stroke-width:1.5;stroke-linecap:round;stroke-linejoin:round;stroke-miterlimit:10;}
</style>
<g id="Layer_1" class="st0">
	<rect class="st1" width="35" height="35.1"/>
</g>
<g id="Layer_2">
	<g>
		<rect x="5" y="7.5" class="st2" width="10.8" height="26.5"/>
		<polyline class="st2" points="15.9,25 29.2,25 29.2,33.9 15.9,33.9 		"/>
		<line class="st2" x1="3.2" y1="34.2" x2="31.2" y2="34.2"/>
		<line class="st2" x1="8.5" y1="10.5" x2="8.5" y2="31"/>
		<line class="st2" x1="12.4" y1="10.5" x2="12.4" y2="31"/>
		<line class="st2" x1="10.4" y1="0.9" x2="10.4" y2="4.7"/>
		<path class="st2" d="M18.7,31.6"/>
		<path class="st2" d="M18.7,27.2"/>
		<path class="st2" d="M23.9,31.8"/>
		<path class="st2" d="M23.9,27.4"/>
		<path class="st2" d="M26.8,31.8"/>
		<path class="st2" d="M26.8,27.4"/>
		<polyline class="st2" points="16.2,22.2 29.2,22.2 29.2,25.5 		"/>
		<polyline class="st2" points="7.6,7.4 7.6,4.9 13.3,4.9 13.3,7.4 		"/>
	</g>
	<line class="st2" x1="22.6" y1="27.6" x2="22.6" y2="31.1"/>
	<line class="st2" x1="19" y1="27.6" x2="19" y2="31.1"/>
	<line class="st2" x1="26" y1="27.6" x2="26" y2="31.1"/>
</g>
</svg>
