<?xml version="1.0" encoding="utf-8"?>
<!-- Generator: Adobe Illustrator 22.0.1, SVG Export Plug-In . SVG Version: 6.00 Build 0)  -->
<svg version="1.1" id="Ebene_1" xmlns="http://www.w3.org/2000/svg" xmlns:xlink="http://www.w3.org/1999/xlink" x="0px" y="0px"
	 viewBox="0 0 25 18" style="enable-background:new 0 0 25 18;" xml:space="preserve">
<style type="text/css">
	.st0{fill:none;stroke:#FFFFFF;stroke-width:0.769;stroke-linecap:round;stroke-linejoin:round;stroke-miterlimit:10;}
</style>
<g>
	<rect x="2" y="3.8" class="st0" width="5.5" height="13.6"/>
	<polyline class="st0" points="7.5,12.8 14.3,12.8 14.3,17.3 7.5,17.3 	"/>
	<line class="st0" x1="1" y1="17.5" x2="15.4" y2="17.5"/>
	<line class="st0" x1="3.7" y1="5.3" x2="3.7" y2="15.9"/>
	<line class="st0" x1="5.7" y1="5.3" x2="5.7" y2="15.9"/>
	<line class="st0" x1="4.7" y1="0.4" x2="4.7" y2="2.4"/>
	<path class="st0" d="M9,16.1"/>
	<path class="st0" d="M9,13.9"/>
	<path class="st0" d="M11.7,16.2"/>
	<path class="st0" d="M11.7,14"/>
	<path class="st0" d="M13.1,16.2"/>
	<path class="st0" d="M13.1,14"/>
	<polyline class="st0" points="7.7,11.3 14.3,11.3 14.3,13 	"/>
	<polyline class="st0" points="3.3,3.7 3.3,2.5 6.2,2.5 6.2,3.7 	"/>
</g>
<line class="st0" x1="11" y1="14.1" x2="11" y2="15.9"/>
<line class="st0" x1="9.1" y1="14.1" x2="9.1" y2="15.9"/>
<line class="st0" x1="12.7" y1="14.1" x2="12.7" y2="15.9"/>
</svg>
