<?xml version="1.0" encoding="utf-8"?>
<!-- Generator: Adobe Illustrator 22.0.1, SVG Export Plug-In . SVG Version: 6.00 Build 0)  -->
<svg version="1.1" id="Ebene_1" xmlns="http://www.w3.org/2000/svg" xmlns:xlink="http://www.w3.org/1999/xlink" x="0px" y="0px"
	 viewBox="0 0 25 18" style="enable-background:new 0 0 25 18;" xml:space="preserve">
<style type="text/css">
	.st0{fill:none;stroke:#FFFFFF;stroke-width:0.7693;stroke-linejoin:round;stroke-miterlimit:10;}
	.st1{fill:none;stroke:#FFFFFF;stroke-width:0.7693;stroke-linecap:round;stroke-miterlimit:10;}
</style>
<rect x="2.8" y="2.9" class="st0" width="12.1" height="12.1"/>
<rect x="4.6" y="4.6" class="st0" width="8.6" height="8.6"/>
<g>
	<line class="st1" x1="0.5" y1="4.2" x2="2.5" y2="4.2"/>
	<line class="st1" x1="0.5" y1="6.1" x2="2.5" y2="6.1"/>
	<line class="st1" x1="0.5" y1="8" x2="2.5" y2="8"/>
	<line class="st1" x1="0.5" y1="10" x2="2.5" y2="10"/>
	<line class="st1" x1="0.5" y1="11.9" x2="2.5" y2="11.9"/>
	<line class="st1" x1="0.5" y1="13.8" x2="2.5" y2="13.8"/>
</g>
<g>
	<line class="st1" x1="13.7" y1="0.6" x2="13.7" y2="2.6"/>
	<line class="st1" x1="11.8" y1="0.6" x2="11.8" y2="2.6"/>
	<line class="st1" x1="9.8" y1="0.6" x2="9.8" y2="2.6"/>
	<line class="st1" x1="7.9" y1="0.6" x2="7.9" y2="2.6"/>
	<line class="st1" x1="6" y1="0.6" x2="6" y2="2.6"/>
	<line class="st1" x1="4.1" y1="0.6" x2="4.1" y2="2.6"/>
</g>
<g>
	<line class="st1" x1="13.7" y1="15.3" x2="13.7" y2="17.3"/>
	<line class="st1" x1="11.8" y1="15.3" x2="11.8" y2="17.3"/>
	<line class="st1" x1="9.8" y1="15.3" x2="9.8" y2="17.3"/>
	<line class="st1" x1="7.9" y1="15.3" x2="7.9" y2="17.3"/>
	<line class="st1" x1="6" y1="15.3" x2="6" y2="17.3"/>
	<line class="st1" x1="4.1" y1="15.3" x2="4.1" y2="17.3"/>
</g>
<g>
	<line class="st1" x1="17.3" y1="13.8" x2="15.3" y2="13.8"/>
	<line class="st1" x1="17.3" y1="11.9" x2="15.3" y2="11.9"/>
	<line class="st1" x1="17.3" y1="10" x2="15.3" y2="10"/>
	<line class="st1" x1="17.3" y1="8" x2="15.3" y2="8"/>
	<line class="st1" x1="17.3" y1="6.1" x2="15.3" y2="6.1"/>
	<line class="st1" x1="17.3" y1="4.2" x2="15.3" y2="4.2"/>
</g>
</svg>
