<?xml version="1.0" encoding="utf-8"?>
<!-- Generator: Adobe Illustrator 22.1.0, SVG Export Plug-In . SVG Version: 6.00 Build 0)  -->
<svg version="1.1" xmlns="http://www.w3.org/2000/svg" xmlns:xlink="http://www.w3.org/1999/xlink" x="0px" y="0px"
	 viewBox="0 0 35 35.1" style="enable-background:new 0 0 35 35.1;" xml:space="preserve">
<style type="text/css">
	.st0{fill:none;stroke:#FFFFFF;stroke-width:1.5;stroke-linejoin:round;stroke-miterlimit:10;}
	.st1{fill:none;stroke:#FFFFFF;stroke-width:1.5;stroke-linecap:round;stroke-miterlimit:10;}
	.st2{display:none;}
</style>
<g id="Layer_1">
	<rect x="5.7" y="5.6" class="st0" width="23.7" height="23.7"/>
	<rect x="9.1" y="9.1" class="st0" width="16.8" height="16.8"/>
	<g>
		<line class="st1" x1="1.1" y1="8.2" x2="5.1" y2="8.2"/>
		<line class="st1" x1="1.1" y1="11.9" x2="5.1" y2="11.9"/>
		<line class="st1" x1="1.1" y1="15.7" x2="5.1" y2="15.7"/>
		<line class="st1" x1="1.1" y1="19.4" x2="5.1" y2="19.4"/>
		<line class="st1" x1="1.1" y1="23.2" x2="5.1" y2="23.2"/>
		<line class="st1" x1="1.1" y1="27" x2="5.1" y2="27"/>
	</g>
	<g>
		<line class="st1" x1="26.9" y1="1.2" x2="26.9" y2="5.2"/>
		<line class="st1" x1="23.1" y1="1.2" x2="23.1" y2="5.2"/>
		<line class="st1" x1="19.4" y1="1.2" x2="19.4" y2="5.2"/>
		<line class="st1" x1="15.6" y1="1.2" x2="15.6" y2="5.2"/>
		<line class="st1" x1="11.9" y1="1.2" x2="11.9" y2="5.2"/>
		<line class="st1" x1="8.1" y1="1.2" x2="8.1" y2="5.2"/>
	</g>
	<g>
		<line class="st1" x1="26.9" y1="29.8" x2="26.9" y2="33.8"/>
		<line class="st1" x1="23.1" y1="29.8" x2="23.1" y2="33.8"/>
		<line class="st1" x1="19.4" y1="29.8" x2="19.4" y2="33.8"/>
		<line class="st1" x1="15.6" y1="29.8" x2="15.6" y2="33.8"/>
		<line class="st1" x1="11.9" y1="29.8" x2="11.9" y2="33.8"/>
		<line class="st1" x1="8.1" y1="29.8" x2="8.1" y2="33.8"/>
	</g>
	<g>
		<line class="st1" x1="33.9" y1="27" x2="29.9" y2="27"/>
		<line class="st1" x1="33.9" y1="23.2" x2="29.9" y2="23.2"/>
		<line class="st1" x1="33.9" y1="19.4" x2="29.9" y2="19.4"/>
		<line class="st1" x1="33.9" y1="15.7" x2="29.9" y2="15.7"/>
		<line class="st1" x1="33.9" y1="11.9" x2="29.9" y2="11.9"/>
		<line class="st1" x1="33.9" y1="8.2" x2="29.9" y2="8.2"/>
	</g>
</g>
<g id="Layer_2" class="st2">
</g>
</svg>
