<?xml version="1.0" encoding="utf-8"?>
<!-- Generator: Adobe Illustrator 22.1.0, SVG Export Plug-In . SVG Version: 6.00 Build 0)  -->
<svg version="1.1" xmlns="http://www.w3.org/2000/svg" xmlns:xlink="http://www.w3.org/1999/xlink" x="0px" y="0px"
	 viewBox="0 0 35 35.1" style="enable-background:new 0 0 35 35.1;" xml:space="preserve">
<style type="text/css">
	.st0{display:none;}
	.st1{display:inline;fill:#FFFFFF;}
	.st2{fill:none;stroke:#FFFFFF;stroke-width:1.5;stroke-linecap:round;stroke-linejoin:round;stroke-miterlimit:10;}
</style>
<g id="Layer_1" class="st0">
	<rect class="st1" width="35" height="35.1"/>
</g>
<g id="Layer_2">
	<path class="st2" d="M25.8,13.8c0.5-1.1,0.7-2.3,0.7-3.6c0-5.1-4.2-9.3-9.3-9.3C12.1,0.9,8,5.1,8,10.2c0,1.3,0.3,2.5,0.7,3.6
		c0,0,3.9,9.5,3.9,9.5h4.7h4.7C21.9,23.3,25.8,13.8,25.8,13.8z"/>
	<rect x="12.6" y="23.3" class="st2" width="9.3" height="2.8"/>
	<rect x="12.6" y="26" class="st2" width="9.3" height="2.8"/>
	<rect x="12.6" y="28.8" class="st2" width="9.3" height="2.8"/>
	<polygon class="st2" points="19.3,34 15.2,34 14.2,31.5 20.3,31.5 	"/>
	<polygon class="st2" points="17.2,23.3 19.3,16.7 15.2,16.7 17.2,10.2 15.2,16.7 19.3,16.7 	"/>
</g>
</svg>
