<?xml version="1.0" encoding="utf-8"?>
<!-- Generator: Adobe Illustrator 22.0.1, SVG Export Plug-In . SVG Version: 6.00 Build 0)  -->
<svg version="1.1" id="Ebene_1" xmlns="http://www.w3.org/2000/svg" xmlns:xlink="http://www.w3.org/1999/xlink" x="0px" y="0px"
	 viewBox="0 0 25 18" style="enable-background:new 0 0 25 18;" xml:space="preserve">
<style type="text/css">
	.st0{fill:none;stroke:#FFFFFF;stroke-width:0.7484;stroke-linecap:round;stroke-linejoin:round;stroke-miterlimit:10;}
</style>
<path class="st0" d="M11,7.1c0.2-0.6,0.3-1.2,0.3-1.8c0-2.6-2-4.8-4.5-4.8c-2.5,0-4.5,2.1-4.5,4.8c0,0.6,0.1,1.3,0.3,1.8
	c0,0,1.9,4.8,1.9,4.8h2.3h2.3C9.1,11.9,11,7.1,11,7.1z"/>
<rect x="4.5" y="11.9" class="st0" width="4.5" height="1.4"/>
<rect x="4.5" y="13.3" class="st0" width="4.5" height="1.4"/>
<rect x="4.5" y="14.7" class="st0" width="4.5" height="1.4"/>
<polygon class="st0" points="7.8,17.4 5.8,17.4 5.3,16.1 8.3,16.1 "/>
<polygon class="st0" points="6.8,11.9 7.8,8.6 5.8,8.6 6.8,5.3 5.8,8.6 7.8,8.6 "/>
</svg>
