<?xml version="1.0" encoding="utf-8"?>
<!-- Generator: Adobe Illustrator 22.0.1, SVG Export Plug-In . SVG Version: 6.00 Build 0)  -->
<svg version="1.1" id="Ebene_1" xmlns="http://www.w3.org/2000/svg" xmlns:xlink="http://www.w3.org/1999/xlink" x="0px" y="0px"
	 viewBox="0 0 34 34" style="enable-background:new 0 0 34 34;" xml:space="preserve">
<style type="text/css">
	.st0{clip-path:url(#SVGID_2_);fill:#BD1818;}
	.st1{fill:none;}
	.st2{clip-path:url(#SVGID_4_);fill:#AEC91A;}
	.st3{clip-path:url(#SVGID_6_);fill:#219AD6;}
	.st4{clip-path:url(#SVGID_8_);fill:#B164A4;}
	.st5{clip-path:url(#SVGID_10_);fill:#A2C9EB;}
	.st6{clip-path:url(#SVGID_12_);fill:#DDDB0F;}
	.st7{clip-path:url(#SVGID_14_);fill:#0099B5;}
	.st8{clip-path:url(#SVGID_16_);fill:#8D94C9;}
	.st9{clip-path:url(#SVGID_18_);fill:#7B216D;}
	.st10{clip-path:url(#SVGID_20_);fill:#F09004;}
	.st11{clip-path:url(#SVGID_22_);fill:#FFCA0D;}
</style>
<g>
	<defs>
		<path id="SVGID_1_" d="M17.3,17.5L8.6,4c2.6-1.7,5.6-2.5,8.7-2.5V17.5z"/>
	</defs>
	<clipPath id="SVGID_2_">
		<use xlink:href="#SVGID_1_"  style="overflow:visible;"/>
	</clipPath>
	<rect x="8" y="0.9" class="st0" width="9.9" height="17.2"/>
</g>
<path class="st1" d="M17.3,17.5L8.6,4c2.6-1.7,5.6-2.5,8.7-2.5V17.5z"/>
<g>
	<defs>
		<path id="SVGID_3_" d="M17.3,17.5L2.7,10.8C4,8.1,6,5.7,8.6,4L17.3,17.5z"/>
	</defs>
	<clipPath id="SVGID_4_">
		<use xlink:href="#SVGID_3_"  style="overflow:visible;"/>
	</clipPath>
	<rect x="2.1" y="3.4" class="st2" width="15.8" height="14.7"/>
</g>
<path class="st1" d="M17.3,17.5L2.7,10.8C4,8.1,6,5.7,8.6,4L17.3,17.5z"/>
<g>
	<defs>
		<path id="SVGID_5_" d="M17.3,17.5L1.4,19.8c-0.4-3,0-6.1,1.3-8.9L17.3,17.5z"/>
	</defs>
	<clipPath id="SVGID_6_">
		<use xlink:href="#SVGID_5_"  style="overflow:visible;"/>
	</clipPath>
	<rect x="0.7" y="10.2" class="st3" width="17.2" height="10.1"/>
</g>
<path class="st1" d="M17.3,17.5L1.4,19.8c-0.4-3,0-6.1,1.3-8.9L17.3,17.5z"/>
<g>
	<defs>
		<path id="SVGID_7_" d="M17.3,17.5L5.2,28c-2-2.3-3.3-5.2-3.7-8.2L17.3,17.5z"/>
	</defs>
	<clipPath id="SVGID_8_">
		<use xlink:href="#SVGID_7_"  style="overflow:visible;"/>
	</clipPath>
	<rect x="0.8" y="16.9" class="st4" width="17" height="11.7"/>
</g>
<path class="st1" d="M17.3,17.5L5.2,28c-2-2.3-3.3-5.2-3.7-8.2L17.3,17.5z"/>
<g>
	<defs>
		<path id="SVGID_9_" d="M17.3,17.5l-4.5,15.4C9.8,32,7.2,30.3,5.2,28L17.3,17.5z"/>
	</defs>
	<clipPath id="SVGID_10_">
		<use xlink:href="#SVGID_9_"  style="overflow:visible;"/>
	</clipPath>
	<rect x="4.6" y="16.9" class="st5" width="13.3" height="16.6"/>
</g>
<path class="st1" d="M17.3,17.5l-4.5,15.4C9.8,32,7.2,30.3,5.2,28L17.3,17.5z"/>
<g>
	<defs>
		<path id="SVGID_11_" d="M17.3,17.5l4.5,15.4c-2.9,0.9-6.1,0.9-9,0L17.3,17.5z"/>
	</defs>
	<clipPath id="SVGID_12_">
		<use xlink:href="#SVGID_11_"  style="overflow:visible;"/>
	</clipPath>
	<rect x="12.1" y="16.9" class="st6" width="10.2" height="17.2"/>
</g>
<path class="st1" d="M17.3,17.5l4.5,15.4c-2.9,0.9-6.1,0.9-9,0L17.3,17.5z"/>
<g>
	<defs>
		<path id="SVGID_13_" d="M17.3,17.5L29.4,28c-2,2.3-4.6,4-7.6,4.9L17.3,17.5z"/>
	</defs>
	<clipPath id="SVGID_14_">
		<use xlink:href="#SVGID_13_"  style="overflow:visible;"/>
	</clipPath>
	<rect x="16.7" y="16.9" class="st7" width="13.3" height="16.6"/>
</g>
<path class="st1" d="M17.3,17.5L29.4,28c-2,2.3-4.6,4-7.6,4.9L17.3,17.5z"/>
<g>
	<defs>
		<path id="SVGID_15_" d="M17.3,17.5l15.8,2.3c-0.4,3-1.7,5.9-3.7,8.2L17.3,17.5z"/>
	</defs>
	<clipPath id="SVGID_16_">
		<use xlink:href="#SVGID_15_"  style="overflow:visible;"/>
	</clipPath>
	<rect x="16.7" y="16.9" class="st8" width="17" height="11.7"/>
</g>
<path class="st1" d="M17.3,17.5l15.8,2.3c-0.4,3-1.7,5.9-3.7,8.2L17.3,17.5z"/>
<g>
	<defs>
		<path id="SVGID_17_" d="M17.3,17.5l14.6-6.6c1.3,2.8,1.7,5.9,1.3,8.9L17.3,17.5z"/>
	</defs>
	<clipPath id="SVGID_18_">
		<use xlink:href="#SVGID_17_"  style="overflow:visible;"/>
	</clipPath>
	<rect x="16.7" y="10.2" class="st9" width="17.2" height="10.1"/>
</g>
<path class="st1" d="M17.3,17.5l14.6-6.6c1.3,2.8,1.7,5.9,1.3,8.9L17.3,17.5z"/>
<g>
	<defs>
		<path id="SVGID_19_" d="M17.3,17.5L25.9,4c2.6,1.7,4.6,4,5.9,6.8L17.3,17.5z"/>
	</defs>
	<clipPath id="SVGID_20_">
		<use xlink:href="#SVGID_19_"  style="overflow:visible;"/>
	</clipPath>
	<rect x="16.7" y="3.4" class="st10" width="15.8" height="14.7"/>
</g>
<path class="st1" d="M17.3,17.5L25.9,4c2.6,1.7,4.6,4,5.9,6.8L17.3,17.5z"/>
<g>
	<defs>
		<path id="SVGID_21_" d="M17.3,17.5v-16c3.1,0,6.1,0.9,8.7,2.5L17.3,17.5z"/>
	</defs>
	<clipPath id="SVGID_22_">
		<use xlink:href="#SVGID_21_"  style="overflow:visible;"/>
	</clipPath>
	<rect x="16.7" y="0.9" class="st11" width="9.9" height="17.2"/>
</g>
<path class="st1" d="M17.3,17.5v-16c3.1,0,6.1,0.9,8.7,2.5L17.3,17.5z"/>
</svg>
